<svg id="call" xmlns="http://www.w3.org/2000/svg" width="15.207" height="22.629" viewBox="0 0 15.207 22.629">
  <path id="Path_8" data-name="Path 8" d="M19.2,0H7.905A1.955,1.955,0,0,0,5.951,1.956V20.675a1.953,1.953,0,0,0,1.954,1.954H19.2a1.955,1.955,0,0,0,1.954-1.954V1.956A1.956,1.956,0,0,0,19.2,0ZM10.767,1.188h5.578c.141,0,.255.21.255.471s-.114.472-.255.472H10.767c-.142,0-.254-.211-.254-.472S10.625,1.188,10.767,1.188ZM13.555,20.7A1.248,1.248,0,1,1,14.8,19.45,1.249,1.249,0,0,1,13.555,20.7Zm6.684-4.275H6.871V3.3H20.239V16.423Z" transform="translate(-5.951)" fill="#fff"/>
</svg>
