<svg xmlns="http://www.w3.org/2000/svg" width="378" height="377.5" viewBox="0 0 378 377.5"><defs><style>.a{fill:#74459a;}.b,.c,.d{fill:none;stroke:#fff3fd;}.b,.c{stroke-miterlimit:10;}.b,.d{stroke-width:0.599px;}.c{stroke-width:0.509px;}.e{fill:#fff3fd;}</style></defs><g transform="translate(5297.5 -892.5)"><circle class="a" cx="187.5" cy="187.5" r="187.5" transform="translate(-5295 895)"/><circle class="b" cx="179.67" cy="179.67" r="179.67" transform="translate(-5286.842 902.967)"/><circle class="c" cx="126.635" cy="126.635" r="126.635" transform="translate(-5233.807 956.002)"/><line class="b" y2="376" transform="translate(-5107.027 892.5)"/><line class="b" x1="378" transform="translate(-5297.5 1083.5)"/><line class="b" x1="301" y1="203" transform="translate(-5256.5 984.5)"/><path class="d" d="M210.87,402.653,37.529,75.122" transform="translate(-5229.704 845.131)"/><path class="d" d="M68.442,252.337,383.435,41.421" transform="translate(-5334.864 935.35)"/><path class="d" d="M35.864,417.349,211.122,75.414" transform="translate(-5228.04 839.093)"/><path class="c" d="M412.079,684.273l64.113,256.4,178.869-185.33Z" transform="translate(-5617.55 287.192)"/><path class="c" d="M477.031,661.955,409.882,915.237,656.1,847.13Z" transform="translate(-5618.59 276.629)"/><path class="c" d="M558.309,661.955,381.564,845.8l249.606,66.51Z" transform="translate(-5631.992 276.629)"/><path class="c" d="M619.732,684.273,383.867,745.842,563.744,940.669Z" transform="translate(-5630.902 287.192)"/><path class="e" d="M390.234,726.614a4.335,4.335,0,1,1-4.334-4.334A4.334,4.334,0,0,1,390.234,726.614Z" transform="translate(-5631.992 305.179)"/><path class="e" d="M389.234,788.135A4.335,4.335,0,1,1,384.9,783.8,4.335,4.335,0,0,1,389.234,788.135Z" transform="translate(-5632.465 334.295)"/><path class="e" d="M418.551,835.266a4.334,4.334,0,1,1-4.334-4.334A4.334,4.334,0,0,1,418.551,835.266Z" transform="translate(-5618.59 356.6)"/><path class="e" d="M582.734,789.037A4.334,4.334,0,1,1,578.4,784.7,4.335,4.335,0,0,1,582.734,789.037Z" transform="translate(-5540.889 334.721)"/><path class="e" d="M555.715,833.339A4.334,4.334,0,1,1,551.38,829,4.334,4.334,0,0,1,555.715,833.339Z" transform="translate(-5553.676 355.687)"/><path class="e" d="M511.689,857.683a4.335,4.335,0,1,1-4.336-4.334A4.335,4.335,0,0,1,511.689,857.683Z" transform="translate(-5574.512 367.209)"/><path class="e" d="M461.187,859.7a4.334,4.334,0,1,1-4.334-4.336A4.335,4.335,0,0,1,461.187,859.7Z" transform="translate(-5598.412 368.162)"/><path class="e" d="M461.187,663.348a4.334,4.334,0,1,1-4.334-4.336A4.334,4.334,0,0,1,461.187,663.348Z" transform="translate(-5598.412 275.237)"/><path class="e" d="M549.691,685.665a4.334,4.334,0,1,1-4.334-4.334A4.334,4.334,0,0,1,549.691,685.665Z" transform="translate(-5556.527 285.799)"/><path class="e" d="M507.26,663.348a4.335,4.335,0,1,1-4.334-4.336A4.334,4.334,0,0,1,507.26,663.348Z" transform="translate(-5576.608 275.237)"/><path class="e" d="M580.792,733.9a4.334,4.334,0,1,1-4.334-4.334A4.334,4.334,0,0,1,580.792,733.9Z" transform="translate(-5541.808 308.628)"/><path class="e" d="M417.806,685.665a4.334,4.334,0,1,1-4.334-4.334A4.334,4.334,0,0,1,417.806,685.665Z" transform="translate(-5618.943 285.799)"/><path class="e" d="M485.829,705.2a4.334,4.334,0,1,1-4.334-4.334A4.334,4.334,0,0,1,485.829,705.2Z" transform="translate(-5586.75 295.044)"/><path class="e" d="M533.653,761.471a4.334,4.334,0,1,1-4.334-4.336A4.334,4.334,0,0,1,533.653,761.471Z" transform="translate(-5564.117 321.675)"/><path class="e" d="M485.135,814.474a4.334,4.334,0,1,1-4.334-4.336A4.334,4.334,0,0,1,485.135,814.474Z" transform="translate(-5587.079 346.759)"/><path class="e" d="M435.837,761.471a4.334,4.334,0,1,1-4.334-4.336A4.334,4.334,0,0,1,435.837,761.471Z" transform="translate(-5610.41 321.675)"/><path class="e" d="M488.444,761.7a6.7,6.7,0,1,1-6.7-6.7A6.7,6.7,0,0,1,488.444,761.7Z" transform="translate(-5587.749 320.664)"/><path class="e" d="M488.444,761.7a6.7,6.7,0,1,1-6.7-6.7A6.7,6.7,0,0,1,488.444,761.7Z" transform="translate(-5587.749 320.664)"/><path class="e" d="M488.444,761.7a6.7,6.7,0,1,1-6.7-6.7A6.7,6.7,0,0,1,488.444,761.7Z" transform="translate(-5587.749 320.664)"/><g transform="translate(-5086.299 918.793)"><path class="e" d="M494.821,653.191l-.93,2.1-.922-.087,3.017-6.687,1.077.106,1.688,7.138-.952-.091-.529-2.245Zm2.334-.477-.486-2.055c-.109-.467-.172-.885-.237-1.295l-.019,0c-.143.4-.3.81-.471,1.217l-.869,1.934Z" transform="translate(-492.969 -648.521)"/><path class="e" d="M498.716,648.955a9.536,9.536,0,0,1,1.725.106,2.834,2.834,0,0,1,1.906.85,1.74,1.74,0,0,1,.351,1.385,1.825,1.825,0,0,1-1.55,1.565l0,.031a1.733,1.733,0,0,1,.809,1.534,11.147,11.147,0,0,0,.253,1.964l-.918-.134a9.143,9.143,0,0,1-.22-1.708c-.065-.98-.382-1.389-1.183-1.538l-.835-.122-.433,2.979-.888-.128Zm.432,3.26.909.133a1.364,1.364,0,0,0,1.739-1.08c.131-.887-.455-1.369-1.392-1.515a3.706,3.706,0,0,0-.89-.047Z" transform="translate(-490.716 -648.319)"/><path class="e" d="M503.695,649.666l-1.211,6.839-.883-.158,1.211-6.836Z" transform="translate(-488.884 -648.052)"/><path class="e" d="M507.59,654.209l-2.644-.554-.513,2.453,2.948.617-.156.737-3.825-.8,1.425-6.806,3.673.771-.153.738-2.8-.586-.448,2.149,2.644.552Z" transform="translate(-488.032 -647.889)"/><path class="e" d="M507.153,656.217a3.172,3.172,0,0,0,1.447.838c.888.23,1.528-.108,1.7-.788.162-.629-.108-1.081-.925-1.663-1-.672-1.535-1.416-1.291-2.365a2,2,0,0,1,2.647-1.27,3.152,3.152,0,0,1,1.4.71l-.421.647a2.764,2.764,0,0,0-1.2-.645c-.921-.236-1.41.224-1.528.684-.162.63.168,1.045,1,1.641,1.027.734,1.466,1.43,1.212,2.421-.265,1.04-1.267,1.741-2.855,1.335a3.571,3.571,0,0,1-1.609-.871Z" transform="translate(-486.449 -647.409)"/></g><g transform="translate(-5163.078 918.949)"><path class="e" d="M440.854,654.675a10.425,10.425,0,0,1,1.52-.818,2.857,2.857,0,0,1,2.014-.261,1.868,1.868,0,0,1,1.143,1.083,2.038,2.038,0,0,1,.111,1.573,2.877,2.877,0,0,1-1.632,1.556,3.057,3.057,0,0,1-.687.234l1.127,2.544-.819.364Zm2.174,2.7a3.03,3.03,0,0,0,.709-.234c.987-.438,1.379-1.185.992-2.063-.371-.837-1.143-.98-2.048-.58a3.782,3.782,0,0,0-.744.408Z" transform="translate(-440.854 -646.317)"/><path class="e" d="M445.427,652.436l2.488,6.487-.838.321-2.487-6.488Z" transform="translate(-439.086 -646.825)"/><path class="e" d="M448.135,657.837a3.157,3.157,0,0,0,1.668-.081c.869-.293,1.223-.922,1-1.587-.208-.616-.676-.849-1.681-.893-1.2-.019-2.054-.352-2.365-1.28a2,2,0,0,1,1.528-2.5,3.185,3.185,0,0,1,1.563-.168l0,.773a2.757,2.757,0,0,0-1.355.108c-.9.3-1.058.955-.909,1.4.208.616.71.782,1.735.829,1.258.056,2.005.4,2.331,1.369.34,1.017-.115,2.147-1.668,2.67a3.6,3.6,0,0,1-1.821.146Z" transform="translate(-438.106 -647.367)"/><path class="e" d="M456.478,656.333a4.481,4.481,0,0,1-1.687.8,3.251,3.251,0,0,1-4.231-2.507,3.46,3.46,0,0,1,2.561-4.468,3.686,3.686,0,0,1,1.675-.13l-.019.763a3.258,3.258,0,0,0-1.432.086,2.583,2.583,0,0,0-1.875,3.472,2.528,2.528,0,0,0,3.3,2.008,3.576,3.576,0,0,0,1.341-.66Z" transform="translate(-436.333 -647.988)"/><path class="e" d="M458.773,652.782l-2.65.529.489,2.457,2.954-.588.147.737-3.835.765-1.357-6.815,3.683-.734.146.738-2.8.558.43,2.154,2.65-.529Z" transform="translate(-434.386 -648.388)"/><path class="e" d="M458.97,654.875a3.171,3.171,0,0,0,1.656.233c.909-.122,1.375-.675,1.282-1.369-.088-.644-.505-.964-1.484-1.195-1.179-.246-1.952-.735-2.085-1.706a2,2,0,0,1,1.976-2.172,3.129,3.129,0,0,1,1.568.131l-.146.759a2.763,2.763,0,0,0-1.353-.15c-.941.128-1.223.738-1.158,1.21.087.644.55.9,1.548,1.142,1.226.292,1.895.773,2.032,1.786.144,1.064-.517,2.091-2.144,2.309a3.579,3.579,0,0,1-1.815-.2Z" transform="translate(-432.587 -648.627)"/></g><g transform="translate(-5017.776 944.134)"><path class="e" d="M543.229,667.609l-1.684-1.28.463-.607,4.1,3.117-.463.607-1.693-1.286-3.75,4.928-.722-.549Z" transform="translate(-539.48 -665.722)"/><path class="e" d="M543.609,672.059l-1.918,1.268-.731-.572,6.155-4,.85.67-2.435,6.926-.756-.594.771-2.177Zm2.225.859.7-1.992c.159-.452.334-.84.5-1.22l-.013-.012c-.336.259-.688.522-1.053.771l-1.78,1.158Z" transform="translate(-538.78 -664.286)"/><path class="e" d="M549.414,671.268l-2.624,3.175c-.995,1.2-.883,2.151-.167,2.745.8.657,1.74.554,2.72-.632l2.627-3.175.7.578-2.587,3.128c-1.36,1.647-2.786,1.607-3.948.647-1.1-.907-1.405-2.222-.032-3.885l2.615-3.16Z" transform="translate(-536.78 -663.372)"/><path class="e" d="M552.7,673.836a9.338,9.338,0,0,1,1.391,1.022,2.84,2.84,0,0,1,1.143,1.75,1.736,1.736,0,0,1-.455,1.354,1.827,1.827,0,0,1-2.152.476l-.021.024a1.729,1.729,0,0,1-.152,1.728,10.86,10.86,0,0,0-.85,1.79l-.7-.61a8.992,8.992,0,0,1,.741-1.556c.474-.859.433-1.375-.162-1.934l-.636-.555-1.98,2.269-.675-.588Zm-1.407,2.974.693.605a1.367,1.367,0,0,0,2.048.034c.591-.676.358-1.4-.351-2.03a3.588,3.588,0,0,0-.722-.519Z" transform="translate(-535.359 -661.882)"/><path class="e" d="M556.229,677.065l-2.795,3.028c-1.056,1.145-1,2.1-.314,2.728.76.7,1.708.648,2.749-.483l2.793-3.026.667.616-2.751,2.98c-1.448,1.57-2.87,1.454-3.978.432-1.047-.965-1.283-2.294.18-3.879l2.777-3.011Z" transform="translate(-533.673 -660.645)"/><path class="e" d="M555.247,683.654a3.185,3.185,0,0,0,.825,1.453,1.248,1.248,0,0,0,1.868.177c.455-.463.452-.987.038-1.9-.524-1.083-.611-1.993.077-2.69a2,2,0,0,1,2.924.236,3.178,3.178,0,0,1,.853,1.32l-.689.348a2.783,2.783,0,0,0-.709-1.161,1.121,1.121,0,0,0-1.66-.18c-.457.464-.38.987.041,1.924.517,1.149.545,1.973-.171,2.7-.753.765-1.97.866-3.136-.284a3.6,3.6,0,0,1-.95-1.562Z" transform="translate(-532.345 -658.889)"/></g><g transform="translate(-4961.244 1017.147)"><path class="e" d="M579.438,722.088a6.467,6.467,0,0,1-1.2-1.806,3.264,3.264,0,0,1,1.8-4.67,3.485,3.485,0,0,1,4.791,2.024,4.285,4.285,0,0,1,.4,1.716l-.757.091a3.607,3.607,0,0,0-.339-1.528,2.6,2.6,0,0,0-3.677-1.45,2.548,2.548,0,0,0-1.5,3.577,2.906,2.906,0,0,0,.647,1.022l1.9-.825-.561-1.3.661-.287.912,2.1Z" transform="translate(-577.853 -715.281)"/><path class="e" d="M583.486,723.959l-.992-2.51-2.329.919,1.1,2.8-.7.275-1.433-3.632,6.457-2.55,1.378,3.486-.7.277-1.047-2.652-2.042.8.993,2.51Z" transform="translate(-577.245 -713.397)"/><path class="e" d="M585.312,729.508c.9-.371,1.973-.819,2.793-1.1l-.01-.028c-.847.049-1.759.065-2.78.055l-3.589-.032-.225-.641,2.743-2.164c.813-.638,1.568-1.2,2.279-1.66l-.007-.019c-.824.27-1.939.61-2.942.9l-2.87.818-.286-.806,6.714-1.862.38,1.078-2.771,2.241c-.712.558-1.351,1.036-1.973,1.441l.01.031c.719-.069,1.522-.091,2.45-.093l3.583.046.382,1.078-6.407,2.727-.293-.827Z" transform="translate(-576.638 -711.642)"/><path class="e" d="M589.234,729.227l-6.619,2.12-.274-.854,6.618-2.119Z" transform="translate(-575.728 -709.084)"/><path class="e" d="M582.907,732.183l6.668-1.934.274.94-2.755,3.116a20.07,20.07,0,0,1-1.818,1.825l.013.016c.869-.337,1.675-.592,2.712-.893l2.79-.81.234.81-6.668,1.936-.25-.872,2.768-3.1a21.864,21.864,0,0,1,1.865-1.893l-.019-.026c-.828.293-1.622.545-2.73.868l-2.849.825Z" transform="translate(-575.46 -708.196)"/><path class="e" d="M591.155,735.844l-6.734,1.734-.224-.871,6.734-1.731Z" transform="translate(-574.85 -705.959)"/></g><g transform="translate(-4957.404 1102.007)"><path class="e" d="M585.688,777.731a4.435,4.435,0,0,1-.088-1.862,3.245,3.245,0,0,1,3.928-2.947,3.458,3.458,0,0,1,3.145,4.071,3.713,3.713,0,0,1-.52,1.6l-.7-.309a3.276,3.276,0,0,0,.468-1.352,2.58,2.58,0,0,0-2.487-3.058,2.524,2.524,0,0,0-3.117,2.282,3.614,3.614,0,0,0,.1,1.488Z" transform="translate(-578.051 -772.881)"/><path class="e" d="M587.594,778.74l-2.03-1.092.161-.915,6.443,3.533-.187,1.067-7.262,1.135.165-.946,2.285-.352Zm.3,2.368,2.092-.326c.473-.072.9-.1,1.313-.136l0-.021c-.39-.171-.788-.356-1.18-.563l-1.867-1.019Z" transform="translate(-578.443 -771.058)"/><path class="e" d="M584.912,781.437l6.789,1.475-.209.956-3.907,1.429a19.951,19.951,0,0,1-2.471.74l.006.021c.924.118,1.755.277,2.811.507l2.841.617-.178.825-6.79-1.475.193-.885,3.913-1.408a22.583,22.583,0,0,1,2.543-.775l0-.032c-.865-.137-1.685-.293-2.814-.539l-2.9-.632Z" transform="translate(-578.876 -768.831)"/><path class="e" d="M582.863,790.741a4.48,4.48,0,0,1,.137-1.858,3.247,3.247,0,0,1,4.261-2.447,3.456,3.456,0,0,1,2.627,4.423,3.73,3.73,0,0,1-.71,1.52l-.656-.393a3.246,3.246,0,0,0,.629-1.285,2.579,2.579,0,0,0-2.1-3.338,2.523,2.523,0,0,0-3.369,1.887,3.551,3.551,0,0,0-.084,1.49Z" transform="translate(-579.343 -766.536)"/><path class="e" d="M584.928,794.53l.756-2.6-2.41-.7-.838,2.894-.725-.212,1.095-3.755,6.677,1.945-1.052,3.608-.723-.212.8-2.743-2.11-.616-.756,2.6Z" transform="translate(-579.867 -764.703)"/><path class="e" d="M588.385,795.77a9.3,9.3,0,0,1-.4,1.681,2.836,2.836,0,0,1-1.168,1.731,1.723,1.723,0,0,1-1.423.109,1.827,1.827,0,0,1-1.276-1.8l-.03-.009a1.727,1.727,0,0,1-1.647.529,11.1,11.1,0,0,0-1.982-.085l.29-.881a8.957,8.957,0,0,1,1.722.077c.972.1,1.433-.135,1.716-.9l.264-.8-2.858-.941.281-.852Zm-3.288-.137-.286.872a1.367,1.367,0,0,0,.765,1.9c.852.281,1.426-.214,1.732-1.112a3.651,3.651,0,0,0,.2-.868Z" transform="translate(-580.459 -763.062)"/></g><g transform="translate(-5002.198 1191.249)"><path class="e" d="M563.131,838.395l-.636.631-4.364-4.405-2.111,2.092-.529-.535,2.748-2.723Z" transform="translate(-547.481 -833.455)"/><path class="e" d="M555.388,840.724l1.98-1.844-1.71-1.836-2.206,2.054-.514-.551,2.863-2.665,4.742,5.09-2.749,2.561-.514-.551,2.094-1.949-1.5-1.609-1.98,1.844Z" transform="translate(-548.689 -832.307)"/><path class="e" d="M551.14,844.614c-1.576-1.8-1.319-3.711.016-4.879,1.38-1.208,3.287-.987,4.672.6,1.453,1.66,1.372,3.648-.024,4.869C554.377,846.451,552.5,846.165,551.14,844.614Zm3.981-3.636c-.978-1.117-2.459-1.588-3.521-.657s-.813,2.452.225,3.638c.911,1.04,2.4,1.65,3.529.666S556.124,842.126,555.121,840.978Z" transform="translate(-550.054 -830.848)"/></g><g transform="translate(-5075.641 1231.843)"><path class="e" d="M517.1,861.009l4.405,5.839-.916.314-2.139-2.886c-.586-.791-1.1-1.506-1.547-2.217l-.019.007c.077.823.088,1.749.091,2.706l.006,3.632-.908.311.088-7.383Z" transform="translate(-492.695 -861.009)"/><path class="e" d="M515.366,868.858l-2.045-6.64.856-.262,2.046,6.637Z" transform="translate(-493.996 -860.561)"/><path class="e" d="M515.361,869.107a9.244,9.244,0,0,1-1.622.6,2.82,2.82,0,0,1-2.089-.015,1.726,1.726,0,0,1-.877-1.129,1.824,1.824,0,0,1,.791-2.057l-.009-.031a1.731,1.731,0,0,1-1.355-1.08,11.354,11.354,0,0,0-1.022-1.7l.894-.245a8.768,8.768,0,0,1,.887,1.476c.455.869.908,1.118,1.7.933l.816-.224-.8-2.905.865-.237Zm-1.7-2.815-.885.243c-.925.255-1.373.924-1.161,1.691.237.865.968,1.068,1.886.828a3.673,3.673,0,0,0,.832-.317Z" transform="translate(-495.957 -860.306)"/><path class="e" d="M504.9,864.837a6.464,6.464,0,0,1,2-.849,3.266,3.266,0,0,1,4.264,2.622,3.489,3.489,0,0,1-2.871,4.34,4.355,4.355,0,0,1-1.761.075l.049-.763a3.614,3.614,0,0,0,1.566-.052,2.6,2.6,0,0,0,2.1-3.35A2.549,2.549,0,0,0,507,864.725a2.94,2.94,0,0,0-1.124.449l.464,2.021,1.378-.317.161.706-2.233.51Z" transform="translate(-497.981 -859.661)"/><path class="e" d="M500.287,868.959c-.417-2.354.791-3.856,2.535-4.165,1.8-.321,3.319.853,3.689,2.922.385,2.17-.712,3.829-2.537,4.155C502.107,872.2,500.648,870.988,500.287,868.959Zm5.285-1.055c-.261-1.46-1.283-2.628-2.672-2.382s-1.961,1.68-1.687,3.229c.243,1.361,1.207,2.653,2.675,2.393S505.838,869.405,505.571,867.9Z" transform="translate(-500.204 -859.243)"/></g><g transform="translate(-5153.644 1235.887)"><path class="e" d="M463.8,874.618l-.887-.133.931-6.126-2.935-.446.113-.745,3.822.582Z" transform="translate(-440.797 -862.138)"/><path class="e" d="M458.709,873.741l1.26-6.845.884.165-1.26,6.842Z" transform="translate(-441.839 -862.267)"/><path class="e" d="M458.571,873.529a8.8,8.8,0,0,1-1.631-.206,2.876,2.876,0,0,1-1.755-.9,1.461,1.461,0,0,1-.3-1.322,1.65,1.65,0,0,1,1.473-1.239l0-.021a1.79,1.79,0,0,1-1.03-2.007,1.868,1.868,0,0,1,.869-1.233,3.486,3.486,0,0,1,2.482-.127,10.494,10.494,0,0,1,1.342.377Zm-.271-2.969-.8-.172c-.925-.2-1.573.164-1.716.818-.172.8.364,1.239,1.251,1.431a3.772,3.772,0,0,0,.788.109Zm.706-3.251a4.632,4.632,0,0,0-.726-.2c-.906-.2-1.814-.047-2.029.938-.2.927.511,1.482,1.467,1.69l.725.158Z" transform="translate(-443.671 -862.538)"/><path class="e" d="M454.564,872.814a9.1,9.1,0,0,1-1.7-.289,2.831,2.831,0,0,1-1.8-1.055,1.731,1.731,0,0,1-.2-1.413,1.826,1.826,0,0,1,1.713-1.389l.006-.031a1.731,1.731,0,0,1-.635-1.612,11.335,11.335,0,0,0-.043-1.983l.9.233A8.966,8.966,0,0,1,452.83,867c-.041.978.228,1.423,1.009,1.656l.819.214.753-2.916.869.224Zm-.077-3.288-.888-.23a1.368,1.368,0,0,0-1.847.885c-.224.869.3,1.413,1.221,1.657a3.753,3.753,0,0,0,.88.144Z" transform="translate(-445.586 -863.144)"/><path class="e" d="M450.6,867.057l1.326-1.878.888.27-4.284,5.953-1.034-.314-.242-7.334.916.278.072,2.307Zm-2.384.007.068,2.111c.015.477,0,.9-.025,1.316l.021.006c.218-.364.451-.735.7-1.1l1.236-1.724Z" transform="translate(-447.258 -863.754)"/></g><g transform="translate(-5225.595 1193.618)"><path class="e" d="M422.608,852.76a3.2,3.2,0,0,0-1.052-1.3,1.249,1.249,0,0,0-1.871.127c-.374.532-.286,1.05.271,1.884.694.984.927,1.871.361,2.671a2,2,0,0,1-2.926.242,3.2,3.2,0,0,1-1.058-1.165l.625-.458a2.766,2.766,0,0,0,.887,1.036,1.129,1.129,0,0,0,1.672-.094c.376-.53.214-1.036-.355-1.893-.7-1.05-.857-1.859-.267-2.692.619-.877,1.8-1.173,3.142-.227a3.6,3.6,0,0,1,1.19,1.388Z" transform="translate(-389.942 -827.85)"/><path class="e" d="M416.539,847.373a4.447,4.447,0,0,1,1.671.834,3.251,3.251,0,0,1,.644,4.878,3.463,3.463,0,0,1-5.1.751,3.733,3.733,0,0,1-1.136-1.238l.613-.458a3.236,3.236,0,0,0,.949,1.071,2.587,2.587,0,0,0,3.9-.67,2.53,2.53,0,0,0-.467-3.842,3.577,3.577,0,0,0-1.347-.647Z" transform="translate(-391.701 -829.237)"/><path class="e" d="M410.394,846.636c1.5-1.868,3.425-1.951,4.812-.843,1.435,1.148,1.554,3.067.239,4.71-1.38,1.727-3.355,2-4.806.837C409.155,850.154,409.1,848.25,410.394,846.636Zm4.289,3.285c.927-1.162,1.131-2.7.025-3.587s-2.559-.368-3.546.866c-.863,1.078-1.2,2.658-.032,3.593S413.728,851.113,414.682,849.921Z" transform="translate(-393.188 -830.327)"/><path class="e" d="M408.665,849.78a9.365,9.365,0,0,1-1.4-1.015,2.846,2.846,0,0,1-1.154-1.744,1.718,1.718,0,0,1,.448-1.355,1.822,1.822,0,0,1,2.151-.489l.019-.025a1.739,1.739,0,0,1,.141-1.73,11.111,11.111,0,0,0,.84-1.8l.7.6a8.973,8.973,0,0,1-.732,1.566c-.471.857-.424,1.375.172,1.93l.641.552L412.461,844l.682.585Zm1.388-2.986-.7-.6a1.368,1.368,0,0,0-2.051-.024c-.583.682-.349,1.4.365,2.029a3.733,3.733,0,0,0,.726.517Z" transform="translate(-394.786 -831.957)"/><path class="e" d="M405.557,846.321a9.981,9.981,0,0,1-1.358-1.071,2.839,2.839,0,0,1-1.042-1.743,1.876,1.876,0,0,1,.539-1.482,2.051,2.051,0,0,1,1.4-.728,2.882,2.882,0,0,1,2.079.88,3.082,3.082,0,0,1,.488.536l1.889-2.049.659.61Zm1.61-3.07a3.07,3.07,0,0,0-.495-.558,1.488,1.488,0,0,0-2.289-.09c-.622.676-.443,1.442.283,2.113a3.943,3.943,0,0,0,.67.521Z" transform="translate(-396.182 -832.412)"/><path class="e" d="M401.375,842.954l4.856-4.966.641.625-4.854,4.969Z" transform="translate(-397.021 -833.679)"/><path class="e" d="M399.689,836.245c1.738-1.64,3.658-1.456,4.875-.167,1.26,1.335,1.109,3.249-.418,4.694-1.606,1.513-3.593,1.507-4.869.158C397.975,839.548,398.19,837.66,399.689,836.245Zm3.783,3.842c1.08-1.02,1.494-2.515.526-3.543s-2.481-.719-3.627.362c-1.006.947-1.56,2.463-.533,3.552S402.361,841.134,403.472,840.087Z" transform="translate(-398.42 -835.063)"/></g><g transform="translate(-5271.443 1107.291)"><path class="e" d="M385.595,812.725a3.045,3.045,0,0,0-.357-1.562c-.42-.772-1.074-1-1.665-.678-.547.3-.69.779-.561,1.737.181,1.137.01,2-.815,2.449a1.918,1.918,0,0,1-2.62-1.027,3.022,3.022,0,0,1-.42-1.448l.729-.128a2.641,2.641,0,0,0,.328,1.263c.435.8,1.08.841,1.478.623.547-.3.622-.8.494-1.778-.156-1.2.046-1.962.9-2.429.9-.492,2.051-.25,2.8,1.13a3.432,3.432,0,0,1,.44,1.7Z" transform="translate(-361.687 -760.828)"/><path class="e" d="M382.423,809.678l2.183-.333.405.794-6.977,1-.469-.927,4.918-5.052.417.822-1.55,1.585Zm-1.593-1.647-1.416,1.454c-.321.328-.631.6-.93.859l.01.018c.4-.091.81-.178,1.229-.247l2.017-.29Z" transform="translate(-362.441 -762.887)"/><path class="e" d="M380.725,801.5a6.125,6.125,0,0,1,1.2,1.7,3.137,3.137,0,0,1-1.6,4.53,3.349,3.349,0,0,1-4.651-1.821,4.133,4.133,0,0,1-.424-1.637l.726-.109a3.46,3.46,0,0,0,.361,1.458,2.5,2.5,0,0,0,3.567,1.3,2.446,2.446,0,0,0,1.352-3.472,2.8,2.8,0,0,0-.647-.967l-1.8.841.572,1.23-.626.293-.93-1.992Z" transform="translate(-363.539 -764.621)"/><path class="e" d="M374.348,802.583l6.121-2.667.345.79-6.12,2.668Z" transform="translate(-363.964 -765.369)"/><path class="e" d="M374.545,800.519l.765,1.878-.678.277L372.77,798.1l.678-.276.769,1.887,5.5-2.236.33.8Z" transform="translate(-364.711 -766.524)"/><path class="e" d="M373.107,796.858l.7,1.9-.688.252-1.7-4.633.688-.252.7,1.914,5.572-2.048.3.818Z" transform="translate(-365.351 -768.172)"/><path class="e" d="M375.6,793.736h2.208l.277.844-7.038-.066-.324-.986,5.619-4.245.286.874-1.766,1.332Zm-1.323-1.867-1.616,1.22c-.367.278-.712.495-1.046.71l0,.018c.407-.029.826-.053,1.251-.057l2.036.016Z" transform="translate(-365.678 -770.401)"/><path class="e" d="M370.263,791.64a8.831,8.831,0,0,1-.579-1.551,2.7,2.7,0,0,1,0-2,1.658,1.658,0,0,1,1.073-.849,1.754,1.754,0,0,1,1.977.747l.028-.007a1.659,1.659,0,0,1,1.03-1.305,10.875,10.875,0,0,0,1.619-.991l.242.856a8.758,8.758,0,0,1-1.411.86c-.829.439-1.065.875-.883,1.635l.221.779,2.776-.784.234.828Zm2.686-1.651-.237-.847c-.25-.883-.893-1.307-1.624-1.1-.829.234-1.022.936-.785,1.814a3.608,3.608,0,0,0,.308.8Z" transform="translate(-366.26 -772.106)"/><path class="e" d="M368.789,785.915l6.476-1.6.208.838-6.481,1.594Z" transform="translate(-366.595 -772.751)"/><path class="e" d="M368.614,785.082l3.869-.781c1.463-.295,1.951-1.071,1.775-1.942-.2-.969-.961-1.462-2.406-1.168l-3.866.781-.172-.851,3.808-.772c2.005-.4,3.042.486,3.33,1.9.27,1.338-.293,2.5-2.319,2.91l-3.847.776Z" transform="translate(-367.056 -774.676)"/><path class="e" d="M373.3,780.166a3.049,3.049,0,0,0,.218-1.591c-.122-.871-.653-1.319-1.32-1.224-.619.085-.922.488-1.14,1.428-.233,1.135-.7,1.878-1.628,2.007a1.917,1.917,0,0,1-2.092-1.886,3.023,3.023,0,0,1,.118-1.506l.729.137a2.627,2.627,0,0,0-.138,1.3c.124.9.713,1.17,1.164,1.107.617-.086.866-.531,1.09-1.491.277-1.177.735-1.824,1.708-1.959,1.019-.141,2.008.491,2.225,2.049a3.453,3.453,0,0,1-.187,1.747Z" transform="translate(-367.3 -776.467)"/></g><g transform="translate(-5271.684 1014.371)"><path class="e" d="M374.125,745.73a4.448,4.448,0,0,1,.141,1.858,3.247,3.247,0,0,1-3.845,3.058,3.457,3.457,0,0,1-3.262-3.979,3.745,3.745,0,0,1,.476-1.61l.706.29a3.293,3.293,0,0,0-.43,1.367,2.586,2.586,0,0,0,2.575,2.986,2.526,2.526,0,0,0,3.05-2.372,3.574,3.574,0,0,0-.137-1.486Z" transform="translate(-367.136 -698.412)"/><path class="e" d="M372.276,744.845l2.065,1.021-.13.921-6.558-3.31.152-1.074,7.216-1.38-.133.952-2.27.429Zm-.377-2.354-2.077.395c-.471.09-.893.135-1.307.181l0,.019c.395.159.8.332,1.2.523l1.9.955Z" transform="translate(-366.891 -700.322)"/><path class="e" d="M368.217,740.614a10.6,10.6,0,0,1,.175-1.718,2.849,2.849,0,0,1,.915-1.817,1.871,1.871,0,0,1,1.54-.34,2.048,2.048,0,0,1,1.367.793,2.878,2.878,0,0,1,.373,2.225,3.168,3.168,0,0,1-.19.7l2.742.5-.159.884Zm3.458-.286a2.935,2.935,0,0,0,.2-.718c.193-1.067-.206-1.811-1.152-1.98-.9-.163-1.454.4-1.631,1.372a3.79,3.79,0,0,0-.08.846Z" transform="translate(-366.624 -702.367)"/><path class="e" d="M368.958,736.635a9.3,9.3,0,0,1,.227-1.716,2.851,2.851,0,0,1,.983-1.844,1.735,1.735,0,0,1,1.407-.252,1.822,1.822,0,0,1,1.456,1.659l.029.006a1.732,1.732,0,0,1,1.59-.7,11.16,11.16,0,0,0,1.979-.118l-.2.908a8.948,8.948,0,0,1-1.722.1c-.983,0-1.413.283-1.615,1.073l-.181.827,2.944.642-.193.878Zm3.285-.2.2-.9a1.367,1.367,0,0,0-.955-1.814c-.877-.192-1.4.358-1.61,1.285a3.553,3.553,0,0,0-.109.884Z" transform="translate(-366.274 -704.225)"/><path class="e" d="M370.023,730.834l6.737,1.687-.217.869L369.8,731.7Z" transform="translate(-365.873 -705.143)"/><path class="e" d="M377.894,728.151a4.455,4.455,0,0,1-.187,1.856,3.251,3.251,0,0,1-4.327,2.338,3.46,3.46,0,0,1-2.513-4.5,3.7,3.7,0,0,1,.75-1.5l.645.408a3.249,3.249,0,0,0-.663,1.268,2.585,2.585,0,0,0,2.011,3.4,2.527,2.527,0,0,0,3.424-1.8,3.589,3.589,0,0,0,.125-1.487Z" transform="translate(-365.451 -707.266)"/><path class="e" d="M376.46,722.4c2.26.79,2.979,2.58,2.394,4.255-.6,1.733-2.372,2.481-4.358,1.787-2.083-.725-3-2.5-2.385-4.249C372.738,722.4,374.514,721.721,376.46,722.4Zm-1.668,5.13c1.4.489,2.922.168,3.387-1.165s-.5-2.536-1.992-3.054c-1.3-.455-2.905-.249-3.4,1.161S373.351,727.029,374.792,727.53Z" transform="translate(-364.87 -709.257)"/><path class="e" d="M373.338,721.546a9.345,9.345,0,0,1,.541-1.643,2.835,2.835,0,0,1,1.307-1.629,1.736,1.736,0,0,1,1.43.01,1.828,1.828,0,0,1,1.121,1.9l.029.012a1.729,1.729,0,0,1,1.69-.392,11.413,11.413,0,0,0,1.967.252l-.364.854a8.973,8.973,0,0,1-1.711-.223c-.962-.184-1.441.018-1.787.754l-.331.779L380,723.4l-.351.826Zm3.268.411.358-.846a1.368,1.368,0,0,0-.6-1.959c-.827-.351-1.442.094-1.822.965a3.565,3.565,0,0,0-.268.849Z" transform="translate(-364.201 -711.158)"/><path class="e" d="M381.144,721.212l-6.18-3.173.448-.872,4.143-.374a20.239,20.239,0,0,1,2.578-.08v-.022c-.863-.351-1.624-.718-2.587-1.213l-2.587-1.327.388-.754,6.179,3.175-.414.807-4.143.352a21.909,21.909,0,0,1-2.656.1l0,.031c.8.354,1.556.718,2.583,1.246l2.64,1.355Z" transform="translate(-363.431 -713.396)"/></g><g transform="translate(-5235.922 946.848)"><path class="e" d="M394.737,692.727l1.283,1.914-.57.732-4.04-6.132.664-.854,6.946,2.393-.589.756-2.183-.754Zm.844-2.231-2-.689c-.455-.156-.843-.327-1.224-.492l-.012.015c.262.335.526.684.778,1.049l1.17,1.772Z" transform="translate(-391.41 -657.709)"/><path class="e" d="M402.918,688.212c-.794.557-1.6,1.08-2.331,1.516a1.3,1.3,0,0,0-.352.256,3.2,3.2,0,0,1-4.664.072c-1.7-1.435-1.923-3.4-.712-4.837s3.128-1.435,4.7-.112a3.235,3.235,0,0,1,1.27,3.662l.031.026c.579-.415,1.19-.887,1.65-1.267Zm-3.941-2.353c-1.064-.9-2.627-1.271-3.579-.143-.977,1.159-.382,2.631.775,3.595,1.121.961,2.664,1.193,3.568.122C400.666,688.338,400.191,686.884,398.977,685.86Z" transform="translate(-390.14 -659.725)"/><path class="e" d="M397.4,683l3.029,2.79c1.145,1.055,2.1.993,2.727.311.7-.757.648-1.706-.483-2.746l-3.028-2.79.616-.667,2.98,2.748c1.569,1.445,1.453,2.867.433,3.976-.965,1.046-2.292,1.283-3.878-.178l-3.011-2.776Z" transform="translate(-388.865 -661.728)"/><path class="e" d="M403.688,682.3l1.036,2.058-.657.657-3.249-6.593.768-.768,6.6,3.243-.679.679-2.074-1.021Zm1.115-2.11-1.9-.936c-.432-.212-.8-.432-1.154-.642l-.015.015c.221.364.439.744.642,1.139l.944,1.906Z" transform="translate(-386.958 -662.787)"/><path class="e" d="M403.3,676.564a9.171,9.171,0,0,1,1.174-1.266,2.839,2.839,0,0,1,1.867-.936,1.724,1.724,0,0,1,1.292.607,1.825,1.825,0,0,1,.228,2.194l.019.022a1.73,1.73,0,0,1,1.7.349,11.382,11.382,0,0,0,1.68,1.047l-.685.623a8.877,8.877,0,0,1-1.46-.913c-.8-.569-1.314-.585-1.937-.062l-.625.57,2.027,2.226-.661.6Zm2.793,1.735.678-.619a1.366,1.366,0,0,0,.27-2.03c-.6-.663-1.348-.513-2.055.116a3.643,3.643,0,0,0-.6.659Z" transform="translate(-385.785 -664.346)"/><path class="e" d="M406.968,672.7l4.5,5.3-.685.58-4.5-5.3Z" transform="translate(-384.371 -665.132)"/><path class="e" d="M408.531,672.245l2.53,3.252c.958,1.232,1.908,1.329,2.643.76.813-.635.919-1.579-.026-2.793l-2.528-3.253.716-.558,2.493,3.206c1.311,1.688.961,3.07-.23,4-1.126.875-2.474.891-3.8-.815l-2.513-3.237Z" transform="translate(-383.646 -666.576)"/><path class="e" d="M414.792,674.31a3.209,3.209,0,0,0,1.588-.529c.76-.514.933-1.217.539-1.8-.364-.539-.882-.638-1.862-.41-1.165.305-2.076.212-2.625-.6a2,2,0,0,1,.8-2.827,3.182,3.182,0,0,1,1.464-.58l.2.745a2.75,2.75,0,0,0-1.277.47c-.788.532-.769,1.2-.5,1.6.367.538.9.566,1.9.334,1.229-.283,2.045-.149,2.617.7.6.888.467,2.105-.893,3.025a3.582,3.582,0,0,1-1.718.629Z" transform="translate(-381.609 -667.564)"/></g></g></svg>