<svg xmlns="http://www.w3.org/2000/svg" width="25.329" height="25.329" viewBox="0 0 25.329 25.329">
  <g id="instagram" transform="translate(0 0)">
    <path id="Subtraction_1" data-name="Subtraction 1" d="M194.231-1610.507h-14.8a5.269,5.269,0,0,1-5.262-5.263v-14.8a5.268,5.268,0,0,1,5.262-5.262h14.8a5.268,5.268,0,0,1,5.262,5.262v14.8A5.269,5.269,0,0,1,194.231-1610.507Zm-7.4-20.3a8.218,8.218,0,0,0-2.683.461,7.31,7.31,0,0,0-4.494,4.494,7.742,7.742,0,0,0,.954,7.106,7.66,7.66,0,0,0,6.223,3.214,8.214,8.214,0,0,0,2.683-.461,7.309,7.309,0,0,0,4.494-4.493,7.743,7.743,0,0,0-.954-7.108A7.659,7.659,0,0,0,186.829-1630.809Zm8-1.863a1.5,1.5,0,0,0-1.5,1.5,1.5,1.5,0,0,0,1.5,1.5,1.5,1.5,0,0,0,1.5-1.5A1.5,1.5,0,0,0,194.828-1632.672Z" transform="translate(-174.164 1635.836)" fill="#fff"/>
    <path id="Path_5216" data-name="Path 5216" d="M169.263,164.523A4.739,4.739,0,1,0,174,169.263,4.745,4.745,0,0,0,169.263,164.523Zm0,0" transform="translate(-156.598 -156.598)" fill="#fff"/>
  </g>
</svg>
