<svg xmlns="http://www.w3.org/2000/svg" width="20.785" height="15.589" viewBox="0 0 20.785 15.589">
  <g id="mail" transform="translate(0 -64)">
    <g id="Group_544" data-name="Group 544" transform="translate(0 64)">
      <g id="Group_543" data-name="Group 543">
        <path id="Path_6479" data-name="Path 6479" d="M7.067,65.265c2.853,2.416,7.858,6.666,9.329,7.991a.869.869,0,0,0,1.257,0c1.472-1.327,6.478-5.577,9.331-7.993a.433.433,0,0,0,.061-.6A1.72,1.72,0,0,0,25.686,64H8.365a1.719,1.719,0,0,0-1.359.667A.433.433,0,0,0,7.067,65.265Z" transform="translate(-6.633 -64)" fill="#fff"/>
        <path id="Path_6480" data-name="Path 6480" d="M20.534,128.452a.431.431,0,0,0-.462.063c-3.164,2.682-7.2,6.119-8.471,7.264a1.754,1.754,0,0,1-2.417,0C7.83,134.558,3.3,130.7.713,128.514a.433.433,0,0,0-.713.33v8.89a1.734,1.734,0,0,0,1.732,1.732H19.053a1.734,1.734,0,0,0,1.732-1.732v-8.89A.433.433,0,0,0,20.534,128.452Z" transform="translate(0 -123.878)" fill="#fff"/>
      </g>
    </g>
  </g>
</svg>
