<svg id="twitter-logo-silhouette" xmlns="http://www.w3.org/2000/svg" width="29.339" height="23.471" viewBox="0 0 29.339 23.471">
  <g id="Group_154" data-name="Group 154" transform="translate(0 0)">
    <path id="Path_189" data-name="Path 189" d="M29.34,60.218a12.163,12.163,0,0,1-3.456.934,5.969,5.969,0,0,0,2.646-3.277,12.247,12.247,0,0,1-3.824,1.439,6.045,6.045,0,0,0-4.393-1.872,5.974,5.974,0,0,0-6.019,5.926,5.858,5.858,0,0,0,.156,1.351,17.175,17.175,0,0,1-12.4-6.193A5.815,5.815,0,0,0,1.231,61.5a5.9,5.9,0,0,0,2.677,4.933,6.089,6.089,0,0,1-2.726-.744v.074a5.957,5.957,0,0,0,4.827,5.812,6.183,6.183,0,0,1-1.586.208,5.863,5.863,0,0,1-1.133-.11,6.011,6.011,0,0,0,5.621,4.117,12.194,12.194,0,0,1-7.475,2.533A12.983,12.983,0,0,1,0,78.245a17.2,17.2,0,0,0,9.225,2.667A16.87,16.87,0,0,0,26.35,64.048l-.02-.767A11.92,11.92,0,0,0,29.34,60.218Z" transform="translate(-0.001 -57.441)" fill="#fefefe"/>
  </g>
</svg>
