<svg id="youtube-logo" xmlns="http://www.w3.org/2000/svg" width="32.417" height="23.155" viewBox="0 0 32.417 23.155">
  <path id="Path_194" data-name="Path 194" d="M32.4,81.952q-.018-.977-.154-2.469a22.458,22.458,0,0,0-.389-2.668A4.207,4.207,0,0,0,30.6,74.589a3.856,3.856,0,0,0-2.252-1.049,118.68,118.68,0,0,0-12.138-.452A118.675,118.675,0,0,0,4.07,73.54a3.814,3.814,0,0,0-2.243,1.049A4.231,4.231,0,0,0,.579,76.815a20.022,20.022,0,0,0-.407,2.668Q.036,80.975.018,81.952T0,84.666Q0,86.4.018,87.379t.154,2.469a22.376,22.376,0,0,0,.389,2.669,4.2,4.2,0,0,0,1.257,2.225A3.858,3.858,0,0,0,4.07,95.791a118.564,118.564,0,0,0,12.138.452,118.565,118.565,0,0,0,12.138-.452,3.815,3.815,0,0,0,2.243-1.049,4.231,4.231,0,0,0,1.248-2.225,20.035,20.035,0,0,0,.407-2.669q.135-1.492.154-2.469t.018-2.713Q32.417,82.929,32.4,81.952Zm-9.786,3.69-9.262,5.789a1.031,1.031,0,0,1-.615.181,1.252,1.252,0,0,1-.561-.145,1.077,1.077,0,0,1-.6-1.013V78.877a1.078,1.078,0,0,1,.6-1.013,1.09,1.09,0,0,1,1.176.036l9.262,5.789a1.151,1.151,0,0,1,0,1.954Z" transform="translate(0 -73.088)" fill="#fff"/>
</svg>
